# xmcd
#
# Track frame offsets: 
#        150
#        20657
#        41005
#        54075
#        75892
#        94522
#        107075
#        125071
#        144105
#        160009
#        178960
#        195903
#        209859
#        229138
#
# Disc length: 3360 seconds
#
# Revision: 0
# Processed by: cddbd v1.5.2PL0 Copyright (c) Steve Scherf et al.
# Submitted via: ExactAudioCopy v1.0b1
#
DISCID=b20d1e0e
DTITLE=Wine-Sky - Americana Road
DYEAR=2003
DGENRE=Country
TTITLE0=You Call That Music
TTITLE1=Blind Cowboy
TTITLE2=Americana Road
TTITLE3=Sayulita
TTITLE4=See You Later, Alligator
TTITLE5=Hangin' Out At The Shelter
TTITLE6=Closer To The Flame
TTITLE7=Bed 57C
TTITLE8=Watch It On CMT
TTITLE9=Like A Hawk
TTITLE10=It Could Happen To You
TTITLE11=She Stole My Heart
TTITLE12=In This Valley
TTITLE13=It's All The Same
EXTD=
EXTT0=
EXTT1=
EXTT2=
EXTT3=
EXTT4=
EXTT5=
EXTT6=
EXTT7=
EXTT8=
EXTT9=
EXTT10=
EXTT11=
EXTT12=
EXTT13=
PLAYORDER=
